<svg width="679" height="265" viewBox="0 0 679 265" fill="none" xmlns="http://www.w3.org/2000/svg">
<path d="M446.885 176.588C395.327 173.265 345.665 224.064 351.725 219.514C355.285 215.709 365.754 206.935 367.169 204.868C370.685 199.733 374.252 195.074 378.74 190.698C386.565 183.069 394.413 175.927 401.815 167.857C405.109 164.266 407.817 162.362 411.328 158.061C416.485 151.744 422.63 146.497 427.549 140.9C428.225 140.131 432.184 136.511 432.163 135.258C433.292 129.61 424.251 138.734 423.8 139.075C415.456 145.39 408.459 153.937 400.693 160.993C393.72 167.329 386.836 173.235 379.52 179.169C367.511 188.911 356.288 200.23 342.095 206.608C337.246 208.788 332.48 210.825 327.79 213.379C324.801 215.007 316.219 220.386 318.737 218.098C331.589 206.422 344.511 194.681 356.71 182.273C369.039 169.734 370.653 171.714 384.32 160.661C390.108 155.98 396.477 149.827 402.211 145.085C404.601 143.108 420.194 124.928 412.284 134.487C408.156 139.475 400.34 150.903 396.987 154.132C388.147 162.647 390.839 156.597 381.576 164.648C367.568 176.823 352.616 190.04 335.17 197.073C330.716 198.868 326.633 200.833 322.049 202.38C320.634 202.858 315.149 206.246 317.908 202.702C325.966 192.354 336.807 183.481 345.913 174.062C356.572 163.038 366.591 151.141 378.005 140.888C385.235 134.393 392.737 128.101 399.7 121.318C406 115.181 399.918 118.75 395.657 121.47C386.326 127.427 380.148 136.137 372.064 143.447C363.518 151.175 353.474 159.597 343.398 165.208C334.506 170.159 325.178 173.593 316.15 177.955C315.829 178.11 323.968 170.386 325.647 168.747C336.944 157.718 346.848 145.423 358.139 134.391C366.401 126.318 375.117 118.742 383.082 110.368C385.384 107.949 391.663 101.252 384.388 106.15C372.163 114.38 363.493 127.022 352.974 137.172C345.146 144.724 336.906 150.976 327.849 156.908C315.563 164.955 302.995 173.983 289.822 180.497C287.29 181.749 277.995 187.317 285.25 182.152C302.156 170.117 316.752 155.339 331.55 140.907C347.296 125.55 364.502 112.004 381.004 97.528C391.516 88.3055 402.113 79.1717 412.319 69.6128C416.032 66.1357 420.009 62.9345 423.364 59.0944C424.148 58.1967 429.918 52.491 429.439 51.0184C428.874 49.2815 406.777 70.182 405.592 71.3797C390.59 86.542 374.081 99.4765 356.65 111.72C333.452 128.015 310.377 144.365 284.998 157.144C283.45 157.924 253.424 174.855 251.79 172.778C251.166 171.986 286.659 141.909 288.796 139.899C319.908 107.346 282.535 150.504 294.926 139.95M292.536 84.1968C298.387 80.3338 305.873 74.5335 312.921 72.5726C320.19 70.5499 316.062 75.3222 313.735 79.0888C304.618 93.8451 293.545 107.275 282.794 120.838C280.925 123.196 273.343 130.265 280.505 127.936C287.009 125.82 293.897 121.749 299.498 117.938C307.739 112.331 316.37 107.705 323.676 100.819C333.093 91.9445 366.19 64.5826 376.584 56.8061C378.642 55.2666 389.948 47.8309 383.319 54.5355C376.485 61.4479 369.636 68.4321 362.675 75.2205C353.462 84.2062 311.066 126.203 294.926 139.95M294.926 139.95C299.573 145.583 337.796 115.607 375.402 82.5683" stroke="#1F1F23" stroke-width="13.3315" stroke-linecap="round"/>
<path fill-rule="evenodd" clip-rule="evenodd" d="M522.175 59.0208C522.722 58.9419 523.101 58.4349 523.022 57.8883C522.943 57.3416 522.436 56.9624 521.889 57.0413C521.16 57.1464 520.518 57.5105 520.019 57.8485C519.761 58.0227 519.517 58.2074 519.301 58.374L519.181 58.466C519.008 58.5995 518.857 58.7157 518.712 58.8195C515.583 61.0609 512.75 63.6629 510.039 66.317C507.915 64.4746 505.854 62.565 503.808 60.6012C503.462 60.269 503.112 60.0347 502.785 59.8282C502.712 59.7818 502.64 59.7371 502.57 59.693C502.316 59.5347 502.073 59.3829 501.793 59.1801C501.346 58.856 500.721 58.9557 500.397 59.4029C500.073 59.85 500.172 60.4753 500.62 60.7994C500.961 61.0468 501.276 61.2435 501.536 61.4053L501.536 61.4053C501.599 61.445 501.659 61.4825 501.716 61.5182C502.012 61.7058 502.225 61.8543 502.423 62.0441C504.448 63.9878 506.497 65.8873 508.612 67.7269C508.548 67.7909 508.484 67.8549 508.42 67.919C505.911 70.4208 503.557 73.0451 501.322 75.7855C501.325 75.7816 501.325 75.7821 501.319 75.7884C501.31 75.7981 501.287 75.822 501.245 75.8654C501.202 75.9081 501.155 75.9557 501.1 76.0103L501.023 76.0871C500.857 76.2534 500.642 76.4705 500.469 76.6692C500.385 76.766 500.287 76.885 500.207 77.0082C500.167 77.0689 500.114 77.1578 500.07 77.265C500.036 77.3486 499.952 77.5733 499.996 77.8572C500.02 78.0179 500.087 78.2 500.223 78.3643C500.357 78.5274 500.52 78.6243 500.664 78.6782C500.919 78.7738 501.147 78.7473 501.241 78.7331C501.453 78.7014 501.663 78.6174 501.828 78.5438C502.235 78.3626 502.461 77.9431 502.416 77.5228L502.437 77.5015L502.499 77.4394L502.499 77.4394C502.628 77.3114 502.79 77.1502 502.872 77.0495C505.068 74.3576 507.376 71.7847 509.832 69.3351C509.933 69.2339 510.035 69.1327 510.137 69.0316C510.833 69.6184 511.538 70.1984 512.252 70.7712C514.978 72.9572 517.733 75.1296 520.536 77.2337C520.585 77.2705 520.655 77.329 520.752 77.411L520.768 77.4238C520.847 77.4903 520.954 77.5811 521.044 77.6475L521.047 77.6498C521.081 77.6746 521.188 77.7545 521.321 77.8115C521.363 77.8293 521.435 77.8576 521.529 77.8766C521.612 77.8934 521.794 77.9203 522.012 77.8577C522.273 77.7826 522.511 77.5986 522.642 77.3252C522.753 77.0957 522.747 76.8883 522.738 76.7915C522.72 76.6072 522.656 76.4684 522.638 76.4309L522.637 76.4294C522.61 76.37 522.58 76.3185 522.557 76.2811C522.511 76.2049 522.453 76.1218 522.392 76.0371C522.23 75.8128 521.992 75.6757 521.738 75.6356L521.737 75.6343C518.958 73.5484 516.222 71.3909 513.504 69.211C512.851 68.6874 512.205 68.1572 511.566 67.6208C514.209 65.0394 516.914 62.5674 519.877 60.4454C520.053 60.3194 520.237 60.177 520.412 60.0427L520.412 60.0427L520.519 59.9601C520.732 59.7967 520.935 59.6431 521.14 59.5047C521.564 59.2178 521.901 59.0603 522.175 59.0208ZM522.234 76.0397L522.233 76.039C522.247 76.0483 522.248 76.0505 522.234 76.0397Z" fill="#F7B404"/>
<path fill-rule="evenodd" clip-rule="evenodd" d="M202.915 71.0694C203.246 70.6272 203.155 70.0005 202.713 69.6697C202.271 69.3389 201.644 69.4293 201.313 69.8716C200.972 70.328 200.828 70.865 200.749 71.277C200.708 71.492 200.679 71.7036 200.655 71.8864L200.641 71.9894C200.622 72.1346 200.607 72.2544 200.588 72.3662C200.208 74.6653 200.08 76.9858 200.038 79.2753C198.207 79.4024 196.371 79.4719 194.517 79.51C194.161 79.5172 193.858 79.5782 193.599 79.6363C193.539 79.6499 193.481 79.6631 193.426 79.676L193.426 79.676C193.232 79.7207 193.058 79.7609 192.842 79.7954C192.296 79.8824 191.925 80.3951 192.012 80.9404C192.098 81.4858 192.611 81.8575 193.157 81.7705C193.448 81.7239 193.705 81.6644 193.905 81.618C193.953 81.607 193.997 81.5968 194.038 81.5876C194.262 81.5372 194.407 81.5126 194.558 81.5095C196.381 81.4722 198.198 81.4044 200.019 81.2813C200.018 81.3942 200.018 81.5071 200.018 81.6198C200.015 84.0092 200.144 86.3823 200.385 88.753C200.384 88.7461 200.384 88.7694 200.384 88.8547L200.384 89.0048C200.384 89.1616 200.385 89.3775 200.398 89.5667C200.404 89.6581 200.416 89.7785 200.441 89.8972C200.453 89.9555 200.475 90.0453 200.517 90.1436C200.548 90.2183 200.644 90.4304 200.871 90.5971C200.999 90.6917 201.173 90.7725 201.382 90.7926C201.59 90.8124 201.771 90.7664 201.908 90.7041C202.151 90.5937 202.287 90.4195 202.337 90.3523C202.45 90.1991 202.523 90.0241 202.568 89.9063C202.706 89.5468 202.622 89.1567 202.384 88.8864C202.384 88.7751 202.383 88.6385 202.374 88.5508C202.14 86.2423 202.015 83.9379 202.018 81.6225C202.018 81.4557 202.019 81.2891 202.019 81.1226C202.476 81.0808 202.933 81.035 203.391 80.9846C205.723 80.7284 208.064 80.4515 210.397 80.1194C210.427 80.1151 210.478 80.1104 210.566 80.1028L210.581 80.1015L210.581 80.1015C210.648 80.0958 210.752 80.0868 210.837 80.0741L210.841 80.0736C210.871 80.0691 210.993 80.0513 211.12 80.0006C211.16 79.9844 211.231 79.9537 211.309 79.9015C211.379 79.8553 211.526 79.7465 211.635 79.5487C211.767 79.3114 211.805 79.0138 211.704 78.7285C211.62 78.489 211.47 78.3473 211.396 78.286C211.256 78.1699 211.116 78.1192 211.081 78.1064L211.079 78.1057C211.022 78.085 210.971 78.0714 210.936 78.063C210.865 78.0457 210.789 78.0319 210.716 78.0202C210.474 77.9815 210.239 78.0328 210.044 78.1494C207.765 78.4729 205.471 78.7441 203.172 78.9966C202.795 79.038 202.418 79.0764 202.042 79.1119C202.087 76.9406 202.213 74.7981 202.561 72.6924C202.586 72.5429 202.607 72.3805 202.626 72.2342L202.626 72.2341L202.638 72.1465C202.661 71.9688 202.684 71.8076 202.713 71.6553C202.775 71.3328 202.849 71.1577 202.915 71.0694Z" fill="#626368"/>
<path fill-rule="evenodd" clip-rule="evenodd" d="M665.194 228.322C650.194 221.354 634.226 217.646 617.638 214.158L617.617 214.153L617.597 214.15C616.809 214.018 616.048 213.888 615.296 213.759C610.483 212.933 606.022 212.168 597.218 211.54C596.667 211.501 596.188 211.916 596.149 212.467C596.11 213.018 596.525 213.496 597.075 213.535C605.78 214.156 610.16 214.907 614.957 215.73L614.958 215.73L614.959 215.73C615.706 215.858 616.462 215.988 617.246 216.119C634.035 219.65 649.98 223.369 664.899 230.392C660.639 230.847 656.554 231.614 652.353 232.947C651.969 233.068 651.583 233.19 651.196 233.312L651.196 233.312L651.195 233.312C649.433 233.867 647.646 234.43 645.887 235.069C645.782 235.107 645.662 235.148 645.533 235.191L645.533 235.191C645.055 235.353 644.442 235.56 643.918 235.875C643.445 236.161 643.293 236.775 643.579 237.248C643.864 237.721 644.479 237.873 644.951 237.588C645.272 237.395 645.597 237.284 646.026 237.139C646.19 237.083 646.37 237.022 646.57 236.949C648.284 236.326 650.021 235.779 651.781 235.224C652.172 235.101 652.564 234.978 652.958 234.853C657.784 233.322 662.47 232.558 667.534 232.156C667.858 232.13 668.133 231.954 668.296 231.7C668.297 231.7 668.297 231.7 668.298 231.699C668.771 231.414 668.923 230.799 668.638 230.326C666.294 226.441 664.417 222.424 662.645 218.192C662.44 217.703 662.235 217.215 662.03 216.727L662.027 216.72C660.261 212.519 658.501 208.33 657.134 204.049C656.966 203.522 656.403 203.232 655.877 203.4C655.351 203.568 655.06 204.131 655.228 204.657C656.624 209.028 658.42 213.302 660.182 217.492C660.389 217.984 660.595 218.475 660.8 218.965C662.141 222.167 663.555 225.28 665.194 228.322Z" fill="white"/>
<path fill-rule="evenodd" clip-rule="evenodd" d="M14.6688 140.861C19.1503 148.987 25.0558 156.068 31.2707 163.228L31.2844 163.244L31.2987 163.259C31.6178 163.597 31.9253 163.925 32.2296 164.251L32.2296 164.251C34.1794 166.334 35.9962 168.275 39.8857 171.685C40.3009 172.049 40.9327 172.008 41.2968 171.593C41.6609 171.177 41.6195 170.546 41.2042 170.182C37.3901 166.837 35.6293 164.956 33.6904 162.885L33.6904 162.885L33.6904 162.885C33.3898 162.563 33.085 162.238 32.7675 161.901C26.5418 154.728 20.7551 147.773 16.3895 139.839C18.1441 140.82 19.95 141.666 21.9235 142.368C22.1434 142.446 22.3645 142.525 22.5867 142.605C23.6027 142.968 24.6427 143.34 25.6958 143.666C25.743 143.681 25.8007 143.7 25.8667 143.722L25.8676 143.722L25.8677 143.722C26.1449 143.816 26.5678 143.958 26.9748 144.001C27.524 144.06 28.0165 143.662 28.0748 143.112C28.1332 142.563 27.7352 142.071 27.186 142.012C27.0159 141.994 26.8796 141.949 26.6543 141.874L26.6541 141.874L26.6539 141.874C26.553 141.84 26.4343 141.801 26.2867 141.755C25.2794 141.444 24.2894 141.09 23.2754 140.727L23.2753 140.727C23.0493 140.646 22.8221 140.565 22.5932 140.483C19.846 139.507 17.4256 138.226 14.9475 136.64C14.7035 136.483 14.4172 136.447 14.1573 136.514C13.6467 136.507 13.2058 136.891 13.1508 137.408C12.8741 140.014 12.3357 142.522 11.6706 145.106C11.5931 145.407 11.516 145.707 11.4391 146.008C10.7782 148.587 10.1247 151.138 9.25761 153.592C9.07366 154.113 9.34668 154.684 9.86743 154.868C10.3882 155.052 10.9595 154.779 11.1434 154.259C12.042 151.715 12.7181 149.075 13.3757 146.507C13.4531 146.205 13.5302 145.904 13.6074 145.604C14.0135 144.027 14.3787 142.456 14.6688 140.861Z" fill="white"/>
<path d="M145.404 211.139C150.66 220.911 150.96 228.267 143.467 226.259C135.599 224.151 137.57 218.082 138.567 216.685C141.235 212.946 149.118 212.525 152.063 218.629" stroke="#F7B404" stroke-width="2" stroke-linecap="round"/>
</svg>
